{
  "accessors": [
    {
      "bufferView": 2,
      "componentType": 5126,
      "count": 18246,
      "max": [
        1.8177911043167114,
        2.489147901535034,
        2.5042660236358643
      ],
      "min": [
        -1.9435606002807617,
        -1.110455870628357,
        -2.5042665004730225
      ],
      "type": "VEC3"
    },
    {
      "bufferView": 2,
      "byteOffset": 218952,
      "componentType": 5126,
      "count": 18246,
      "max": [
        0.9999773502349854,
        0.9999845027923584,
        0.9994765520095825
      ],
      "min": [
        -0.9999995231628418,
        -0.9999979734420776,
        -0.9994765520095825
      ],
      "type": "VEC3"
    },
    {
      "bufferView": 1,
      "componentType": 5126,
      "count": 18246,
      "max": [
        0.0,
        0.0
      ],
      "min": [
        0.0,
        0.0
      ],
      "type": "VEC2"
    },
    {
      "bufferView": 0,
      "componentType": 5125,
      "count": 108432,
      "type": "SCALAR"
    },
    {
      "bufferView": 2,
      "byteOffset": 437904,
      "componentType": 5126,
      "count": 1213,
      "max": [
        -1.5134484767913818,
        0.3657783567905426,
        0.21806016564369202
      ],
      "min": [
        -1.9303823709487915,
        -0.4537220299243927,
        -0.19981497526168823
      ],
      "type": "VEC3"
    },
    {
      "bufferView": 2,
      "byteOffset": 452460,
      "componentType": 5126,
      "count": 1213,
      "max": [
        0.10849681496620178,
        0.9999258518218994,
        0.9994642734527588
      ],
      "min": [
        -0.9999505281448364,
        -0.9999897480010986,
        -0.9994642734527588
      ],
      "type": "VEC3"
    },
    {
      "bufferView": 1,
      "byteOffset": 145968,
      "componentType": 5126,
      "count": 1213,
      "max": [
        0.0,
        0.0
      ],
      "min": [
        0.0,
        0.0
      ],
      "type": "VEC2"
    },
    {
      "bufferView": 0,
      "byteOffset": 433728,
      "componentType": 5125,
      "count": 7104,
      "type": "SCALAR"
    },
    {
      "bufferView": 2,
      "byteOffset": 467016,
      "componentType": 5126,
      "count": 1094,
      "max": [
        -0.8054177165031433,
        0.6529701352119446,
        1.4515211582183838
      ],
      "min": [
        -1.7093380689620972,
        -0.2816356420516968,
        -1.4515211582183838
      ],
      "type": "VEC3"
    },
    {
      "bufferView": 2,
      "byteOffset": 480144,
      "componentType": 5126,
      "count": 1094,
      "max": [
        0.2582525312900543,
        0.9979833364486694,
        0.9982810020446777
      ],
      "min": [
        -0.9995632171630859,
        -0.9952892065048218,
        -0.9982810020446777
      ],
      "type": "VEC3"
    },
    {
      "bufferView": 1,
      "byteOffset": 155672,
      "componentType": 5126,
      "count": 1094,
      "max": [
        0.0,
        0.0
      ],
      "min": [
        0.0,
        0.0
      ],
      "type": "VEC2"
    },
    {
      "bufferView": 0,
      "byteOffset": 462144,
      "componentType": 5125,
      "count": 6288,
      "type": "SCALAR"
    },
    {
      "bufferView": 2,
      "byteOffset": 493272,
      "componentType": 5126,
      "count": 1969,
      "max": [
        1.3817442655563354,
        -0.016534356400370598,
        1.5352200269699097
      ],
      "min": [
        -1.299845576286316,
        -0.8288156986236572,
        -1.5164637565612793
      ],
      "type": "VEC3"
    },
    {
      "bufferView": 2,
      "byteOffset": 516900,
      "componentType": 5126,
      "count": 1969,
      "max": [
        1.0,
        0.042085688561201096,
        0.9993056058883667
      ],
      "min": [
        -0.9982852935791016,
        -0.9996658563613892,
        -0.9993056058883667
      ],
      "type": "VEC3"
    },
    {
      "bufferView": 1,
      "byteOffset": 164424,
      "componentType": 5126,
      "count": 1969,
      "max": [
        0.0,
        0.0
      ],
      "min": [
        0.0,
        0.0
      ],
      "type": "VEC2"
    },
    {
      "bufferView": 0,
      "byteOffset": 487296,
      "componentType": 5125,
      "count": 11184,
      "type": "SCALAR"
    },
    {
      "bufferView": 2,
      "byteOffset": 540528,
      "componentType": 5126,
      "count": 5966,
      "max": [
        1.9799373149871826,
        1.0078762769699097,
        1.917959213256836
      ],
      "min": [
        -1.7904659509658813,
        -0.5821128487586975,
        -1.917959213256836
      ],
      "type": "VEC3"
    },
    {
      "bufferView": 2,
      "byteOffset": 612120,
      "componentType": 5126,
      "count": 5966,
      "max": [
        0.9982094168663025,
        0.9999946355819702,
        0.9988079071044922
      ],
      "min": [
        -0.9995919466018677,
        -0.9999998807907104,
        -0.9988079071044922
      ],
      "type": "VEC3"
    },
    {
      "bufferView": 1,
      "byteOffset": 180176,
      "componentType": 5126,
      "count": 5966,
      "max": [
        0.0,
        0.0
      ],
      "min": [
        0.0,
        0.0
      ],
      "type": "VEC2"
    },
    {
      "bufferView": 0,
      "byteOffset": 532032,
      "componentType": 5125,
      "count": 34704,
      "type": "SCALAR"
    },
    {
      "bufferView": 2,
      "byteOffset": 683712,
      "componentType": 5126,
      "count": 4684,
      "max": [
        1.7391012907028198,
        0.9864575266838074,
        1.6924657821655273
      ],
      "min": [
        -1.5520137548446655,
        0.1962900608778,
        -1.6924656629562378
      ],
      "type": "VEC3"
    },
    {
      "bufferView": 2,
      "byteOffset": 739920,
      "componentType": 5126,
      "count": 4684,
      "max": [
        0.920399010181427,
        0.999998927116394,
        0.9999736547470093
      ],
      "min": [
        -0.9999798536300659,
        -0.11041703075170517,
        -0.9999736547470093
      ],
      "type": "VEC3"
    },
    {
      "bufferView": 1,
      "byteOffset": 227904,
      "componentType": 5126,
      "count": 4684,
      "max": [
        0.0,
        0.0
      ],
      "min": [
        0.0,
        0.0
      ],
      "type": "VEC2"
    },
    {
      "bufferView": 0,
      "byteOffset": 670848,
      "componentType": 5125,
      "count": 27024,
      "type": "SCALAR"
    },
    {
      "bufferView": 2,
      "byteOffset": 796128,
      "componentType": 5126,
      "count": 3796,
      "max": [
        -0.8685752153396606,
        0.5504381656646729,
        1.4121148586273193
      ],
      "min": [
        -1.6618660688400269,
        -0.27347081899642944,
        -1.3011828660964966
      ],
      "type": "VEC3"
    },
    {
      "bufferView": 2,
      "byteOffset": 841680,
      "componentType": 5126,
      "count": 3796,
      "max": [
        0.9990968704223633,
        0.9984280467033386,
        0.9979878067970276
      ],
      "min": [
        -0.9998407363891602,
        -0.9980862736701965,
        -0.9983382821083069
      ],
      "type": "VEC3"
    },
    {
      "bufferView": 1,
      "byteOffset": 265376,
      "componentType": 5126,
      "count": 3796,
      "max": [
        0.9848484396934509,
        0.4723820686340332
      ],
      "min": [
        0.015151501633226871,
        0.0
      ],
      "type": "VEC2"
    },
    {
      "bufferView": 0,
      "byteOffset": 778944,
      "componentType": 5125,
      "count": 11520,
      "type": "SCALAR"
    },
    {
      "bufferView": 2,
      "byteOffset": 887232,
      "componentType": 5126,
      "count": 1250,
      "max": [
        -1.151477336883545,
        0.582861065864563,
        1.2908577919006348
      ],
      "min": [
        -1.7596611976623535,
        -0.1597292423248291,
        -1.3611201047897339
      ],
      "type": "VEC3"
    },
    {
      "bufferView": 2,
      "byteOffset": 902232,
      "componentType": 5126,
      "count": 1250,
      "max": [
        0.602239727973938,
        0.9981802105903625,
        0.9353297352790833
      ],
      "min": [
        -0.9996507167816162,
        -0.9491451978683472,
        -0.998896062374115
      ],
      "type": "VEC3"
    },
    {
      "bufferView": 1,
      "byteOffset": 295744,
      "componentType": 5126,
      "count": 1250,
      "max": [
        0.0,
        0.0
      ],
      "min": [
        0.0,
        0.0
      ],
      "type": "VEC2"
    },
    {
      "bufferView": 0,
      "byteOffset": 825024,
      "componentType": 5125,
      "count": 7296,
      "type": "SCALAR"
    }
  ],
  "asset": {
    "extras": {
      "author": "soundsbeard (https://sketchfab.com/soundsbeard)",
      "license": "CC-BY-4.0 (http://creativecommons.org/licenses/by/4.0/)",
      "source": "https://sketchfab.com/3d-models/godot-logo-5283bab731e74d3babad747a17622715",
      "title": "godot logo"
    },
    "generator": "Sketchfab-12.67.0",
    "version": "2.0"
  },
  "bufferViews": [
    {
      "buffer": 0,
      "byteLength": 854208,
      "name": "floatBufferViews",
      "target": 34963
    },
    {
      "buffer": 0,
      "byteLength": 305744,
      "byteOffset": 854208,
      "byteStride": 8,
      "name": "floatBufferViews",
      "target": 34962
    },
    {
      "buffer": 0,
      "byteLength": 917232,
      "byteOffset": 1159952,
      "byteStride": 12,
      "name": "floatBufferViews",
      "target": 34962
    }
  ],
  "buffers": [
    {
      "byteLength": 2077184,
      "uri": "scene.bin"
    }
  ],
  "materials": [
    {
      "doubleSided": true,
      "name": "godot1_main",
      "pbrMetallicRoughness": {
        "baseColorFactor": [
          0.100417,
          0.265851,
          0.8,
          1.0
        ],
        "metallicFactor": 0.0,
        "roughnessFactor": 0.831818
      }
    },
    {
      "doubleSided": true,
      "emissiveFactor": [
        0.302128,
        0.302128,
        0.302128
      ],
      "name": "godot1_nose",
      "pbrMetallicRoughness": {
        "metallicFactor": 0.0,
        "roughnessFactor": 0.945455
      }
    },
    {
      "doubleSided": true,
      "emissiveFactor": [
        0.540407,
        0.540407,
        0.540407
      ],
      "name": "godot1_eye_sockets",
      "pbrMetallicRoughness": {
        "baseColorFactor": [
          0.8,
          0.8,
          0.8,
          1.0
        ],
        "metallicFactor": 0.0,
        "roughnessFactor": 0.5
      }
    },
    {
      "doubleSided": true,
      "emissiveFactor": [
        0.510845,
        0.510845,
        0.510845
      ],
      "name": "godot1_inside_glow",
      "pbrMetallicRoughness": {
        "baseColorFactor": [
          0.8,
          0.8,
          0.8,
          1.0
        ],
        "metallicFactor": 0.0,
        "roughnessFactor": 0.5
      }
    },
    {
      "doubleSided": true,
      "name": "godot_eyes1",
      "pbrMetallicRoughness": {
        "metallicFactor": 0.0,
        "roughnessFactor": 0.945455
      }
    },
    {
      "doubleSided": true,
      "name": "godot_eyes2",
      "pbrMetallicRoughness": {
        "baseColorFactor": [
          0.0222724,
          0.0222724,
          0.0222724,
          1.0
        ],
        "metallicFactor": 0.0,
        "roughnessFactor": 0.5
      }
    }
  ],
  "meshes": [
    {
      "name": "Object_0",
      "primitives": [
        {
          "attributes": {
            "NORMAL": 1,
            "POSITION": 0,
            "TEXCOORD_0": 2
          },
          "indices": 3,
          "material": 0,
          "mode": 4
        }
      ]
    },
    {
      "name": "Object_1",
      "primitives": [
        {
          "attributes": {
            "NORMAL": 5,
            "POSITION": 4,
            "TEXCOORD_0": 6
          },
          "indices": 7,
          "material": 1,
          "mode": 4
        }
      ]
    },
    {
      "name": "Object_2",
      "primitives": [
        {
          "attributes": {
            "NORMAL": 9,
            "POSITION": 8,
            "TEXCOORD_0": 10
          },
          "indices": 11,
          "material": 2,
          "mode": 4
        }
      ]
    },
    {
      "name": "Object_3",
      "primitives": [
        {
          "attributes": {
            "NORMAL": 13,
            "POSITION": 12,
            "TEXCOORD_0": 14
          },
          "indices": 15,
          "material": 3,
          "mode": 4
        }
      ]
    },
    {
      "name": "Object_4",
      "primitives": [
        {
          "attributes": {
            "NORMAL": 17,
            "POSITION": 16,
            "TEXCOORD_0": 18
          },
          "indices": 19,
          "material": 0,
          "mode": 4
        }
      ]
    },
    {
      "name": "Object_5",
      "primitives": [
        {
          "attributes": {
            "NORMAL": 21,
            "POSITION": 20,
            "TEXCOORD_0": 22
          },
          "indices": 23,
          "material": 3,
          "mode": 4
        }
      ]
    },
    {
      "name": "Object_6",
      "primitives": [
        {
          "attributes": {
            "NORMAL": 25,
            "POSITION": 24,
            "TEXCOORD_0": 26
          },
          "indices": 27,
          "material": 4,
          "mode": 4
        }
      ]
    },
    {
      "name": "Object_7",
      "primitives": [
        {
          "attributes": {
            "NORMAL": 29,
            "POSITION": 28,
            "TEXCOORD_0": 30
          },
          "indices": 31,
          "material": 5,
          "mode": 4
        }
      ]
    }
  ],
  "nodes": [
    {
      "children": [
        1
      ],
      "matrix": [
        1.0,
        0.0,
        0.0,
        0.0,
        0.0,
        2.220446049250313e-16,
        -1.0,
        0.0,
        0.0,
        1.0,
        2.220446049250313e-16,
        0.0,
        0.0,
        0.0,
        0.0,
        1.0
      ],
      "name": "Sketchfab_model"
    },
    {
      "children": [
        2
      ],
      "name": "root"
    },
    {
      "children": [
        3,
        8,
        11
      ],
      "matrix": [
        1.0,
        0.0,
        0.0,
        0.0,
        0.0,
        2.220446049250313e-16,
        1.0,
        0.0,
        0.0,
        -1.0,
        2.220446049250313e-16,
        0.0,
        0.0,
        0.0,
        0.0,
        1.0
      ],
      "name": "GLTF_SceneRootNode"
    },
    {
      "children": [
        4,
        5,
        6,
        7
      ],
      "matrix": [
        1.0,
        0.0,
        0.0,
        0.0,
        0.0,
        1.0,
        0.0,
        0.0,
        0.0,
        0.0,
        1.0,
        0.0,
        0.0,
        -0.23820841312408447,
        0.0,
        1.0
      ],
      "name": "head top.002_2"
    },
    {
      "mesh": 0,
      "name": "Object_4"
    },
    {
      "mesh": 1,
      "name": "Object_5"
    },
    {
      "mesh": 2,
      "name": "Object_6"
    },
    {
      "mesh": 3,
      "name": "Object_7"
    },
    {
      "children": [
        9,
        10
      ],
      "matrix": [
        1.0,
        0.0,
        0.0,
        0.0,
        0.0,
        1.0,
        0.0,
        0.0,
        0.0,
        0.0,
        1.0,
        0.0,
        -0.16571970283985138,
        -1.5582268238067627,
        -0.00011553242802619934,
        1.0
      ],
      "name": "head bottom.002_3"
    },
    {
      "mesh": 4,
      "name": "Object_9"
    },
    {
      "mesh": 5,
      "name": "Object_10"
    },
    {
      "children": [
        12,
        13
      ],
      "matrix": [
        1.0,
        0.0,
        0.0,
        0.0,
        0.0,
        1.0,
        0.0,
        0.0,
        0.0,
        0.0,
        1.0,
        0.0,
        0.0,
        -0.23820841312408447,
        0.0,
        1.0
      ],
      "name": "eyes take 2_4"
    },
    {
      "mesh": 6,
      "name": "Object_12"
    },
    {
      "mesh": 7,
      "name": "Object_13"
    }
  ],
  "scene": 0,
  "scenes": [
    {
      "name": "Sketchfab_Scene",
      "nodes": [
        0
      ]
    }
  ]
}
